<mxfile host="app.diagrams.net" modified="2023-04-14T11:55:58.130Z" agent="Mozilla/5.0 (Windows NT 10.0; Win64; x64) AppleWebKit/537.36 (KHTML, like Gecko) Chrome/112.0.0.0 Safari/537.36" version="21.1.7" etag="g85z5gWge4z7QXPsmREY" type="device">
  <diagram id="cBfL_9dL7fSUYB-WSl2h" name="Page-1">
    <mxGraphModel dx="1793" dy="995" grid="1" gridSize="10" guides="1" tooltips="1" connect="1" arrows="1" fold="1" page="1" pageScale="1" pageWidth="827" pageHeight="1169" math="0" shadow="0">
      <root>
        <mxCell id="0" />
        <mxCell id="1" parent="0" />
        <mxCell id="AJHHDTXg6uMcqHEg2_Dp-10" value="" style="rounded=1;whiteSpace=wrap;html=1;fillColor=#000000;" vertex="1" parent="1">
          <mxGeometry x="40" y="200" width="320" height="560" as="geometry" />
        </mxCell>
        <mxCell id="AJHHDTXg6uMcqHEg2_Dp-15" value="" style="rounded=0;whiteSpace=wrap;html=1;" vertex="1" parent="1">
          <mxGeometry x="40" y="240" width="320" height="480" as="geometry" />
        </mxCell>
        <mxCell id="AJHHDTXg6uMcqHEg2_Dp-16" value="" style="rounded=0;whiteSpace=wrap;html=1;fillColor=#999999;" vertex="1" parent="1">
          <mxGeometry x="40" y="240" width="320" height="60" as="geometry" />
        </mxCell>
        <mxCell id="AJHHDTXg6uMcqHEg2_Dp-17" value="&lt;font style=&quot;font-size: 30px;&quot;&gt;&lt;b&gt;/home&lt;/b&gt;&lt;/font&gt;" style="text;html=1;strokeColor=none;fillColor=none;align=center;verticalAlign=middle;whiteSpace=wrap;rounded=0;" vertex="1" parent="1">
          <mxGeometry x="120" y="130" width="160" height="30" as="geometry" />
        </mxCell>
        <mxCell id="AJHHDTXg6uMcqHEg2_Dp-19" value="" style="rounded=0;whiteSpace=wrap;html=1;" vertex="1" parent="1">
          <mxGeometry x="443" y="200" width="720" height="640" as="geometry" />
        </mxCell>
        <mxCell id="AJHHDTXg6uMcqHEg2_Dp-29" value="&lt;font size=&quot;1&quot; style=&quot;&quot;&gt;&lt;b style=&quot;font-size: 25px;&quot;&gt;MB-ONE&lt;/b&gt;&lt;/font&gt;" style="text;html=1;strokeColor=none;fillColor=none;align=center;verticalAlign=middle;whiteSpace=wrap;rounded=0;" vertex="1" parent="1">
          <mxGeometry x="140" y="335" width="120" height="30" as="geometry" />
        </mxCell>
        <mxCell id="AJHHDTXg6uMcqHEg2_Dp-42" value="" style="shape=image;html=1;verticalAlign=top;verticalLabelPosition=bottom;labelBackgroundColor=#ffffff;imageAspect=0;aspect=fixed;image=https://cdn1.iconfinder.com/data/icons/user-pictures/100/unknown-128.png" vertex="1" parent="1">
          <mxGeometry x="300" y="309" width="52" height="52" as="geometry" />
        </mxCell>
        <mxCell id="AJHHDTXg6uMcqHEg2_Dp-43" value="" style="rounded=1;whiteSpace=wrap;html=1;" vertex="1" parent="1">
          <mxGeometry x="383" y="40" width="60" height="60" as="geometry" />
        </mxCell>
        <mxCell id="AJHHDTXg6uMcqHEg2_Dp-44" value="" style="rounded=0;whiteSpace=wrap;html=1;" vertex="1" parent="1">
          <mxGeometry x="391.75" y="50" width="42.5" height="10" as="geometry" />
        </mxCell>
        <mxCell id="AJHHDTXg6uMcqHEg2_Dp-45" value="" style="rounded=0;whiteSpace=wrap;html=1;" vertex="1" parent="1">
          <mxGeometry x="391.75" y="65" width="42.5" height="10" as="geometry" />
        </mxCell>
        <mxCell id="AJHHDTXg6uMcqHEg2_Dp-46" value="" style="rounded=0;whiteSpace=wrap;html=1;" vertex="1" parent="1">
          <mxGeometry x="391.75" y="80" width="42.5" height="10" as="geometry" />
        </mxCell>
        <mxCell id="AJHHDTXg6uMcqHEg2_Dp-66" value="&lt;font size=&quot;1&quot; style=&quot;&quot;&gt;&lt;b style=&quot;font-size: 25px;&quot;&gt;MB-ONE&lt;/b&gt;&lt;/font&gt;" style="text;html=1;strokeColor=none;fillColor=none;align=center;verticalAlign=middle;whiteSpace=wrap;rounded=0;" vertex="1" parent="1">
          <mxGeometry x="743" y="260" width="120" height="30" as="geometry" />
        </mxCell>
        <mxCell id="AJHHDTXg6uMcqHEg2_Dp-73" value="" style="rounded=0;whiteSpace=wrap;html=1;" vertex="1" parent="1">
          <mxGeometry x="60" y="410" width="280" height="200" as="geometry" />
        </mxCell>
        <mxCell id="AJHHDTXg6uMcqHEg2_Dp-81" value="" style="rounded=0;whiteSpace=wrap;html=1;" vertex="1" parent="1">
          <mxGeometry x="493" y="340" width="620" height="160" as="geometry" />
        </mxCell>
        <mxCell id="AJHHDTXg6uMcqHEg2_Dp-82" value="" style="rounded=0;whiteSpace=wrap;html=1;" vertex="1" parent="1">
          <mxGeometry x="493" y="540" width="620" height="160" as="geometry" />
        </mxCell>
        <mxCell id="AJHHDTXg6uMcqHEg2_Dp-83" value="" style="rounded=0;whiteSpace=wrap;html=1;" vertex="1" parent="1">
          <mxGeometry x="493" y="740" width="620" height="100" as="geometry" />
        </mxCell>
        <mxCell id="AJHHDTXg6uMcqHEg2_Dp-84" value="" style="shape=image;html=1;verticalAlign=top;verticalLabelPosition=bottom;labelBackgroundColor=#ffffff;imageAspect=0;aspect=fixed;image=https://cdn1.iconfinder.com/data/icons/user-pictures/100/unknown-128.png" vertex="1" parent="1">
          <mxGeometry x="1061" y="238" width="52" height="52" as="geometry" />
        </mxCell>
        <mxCell id="AJHHDTXg6uMcqHEg2_Dp-86" value="&lt;h1 style=&quot;text-align: right;&quot;&gt;&lt;font style=&quot;font-size: 16px;&quot;&gt;Heading&lt;/font&gt;&lt;/h1&gt;&lt;p style=&quot;&quot;&gt;&lt;font style=&quot;font-size: 10px;&quot;&gt;Lorem ipsum dolor sit amet, consectetur adipisicing elit, sed do eiusmod tempor incididunt ut labore et dolore magna aliqua.&amp;nbsp;&lt;/font&gt;&lt;/p&gt;Lorem ipsum dolor sit amet, consectetur adipisicing elit, sed do eiusmod tempor incididunt ut labore et dolore magna aliqua" style="text;html=1;strokeColor=none;fillColor=none;spacing=5;spacingTop=-20;whiteSpace=wrap;overflow=hidden;rounded=0;" vertex="1" parent="1">
          <mxGeometry x="643" y="350" width="440" height="130" as="geometry" />
        </mxCell>
        <mxCell id="AJHHDTXg6uMcqHEg2_Dp-87" value="&lt;h1 style=&quot;&quot;&gt;&lt;font style=&quot;font-size: 16px;&quot;&gt;Heading&lt;/font&gt;&lt;/h1&gt;&lt;p style=&quot;&quot;&gt;&lt;font style=&quot;font-size: 10px;&quot;&gt;Lorem ipsum dolor sit amet, consectetur adipisicing elit, sed do eiusmod tempor incididunt ut labore et dolore magna aliqua.&amp;nbsp;&lt;/font&gt;&lt;/p&gt;Lorem ipsum dolor sit amet, consectetur adipisicing elit, sed do eiusmod tempor incididunt ut labore et dolore magna aliqua" style="text;html=1;strokeColor=none;fillColor=none;spacing=5;spacingTop=-20;whiteSpace=wrap;overflow=hidden;rounded=0;" vertex="1" parent="1">
          <mxGeometry x="503" y="550" width="440" height="130" as="geometry" />
        </mxCell>
        <mxCell id="AJHHDTXg6uMcqHEg2_Dp-85" value="" style="rounded=1;whiteSpace=wrap;html=1;" vertex="1" parent="1">
          <mxGeometry x="503" y="350" width="130" height="140" as="geometry" />
        </mxCell>
        <mxCell id="AJHHDTXg6uMcqHEg2_Dp-88" value="" style="rounded=1;whiteSpace=wrap;html=1;" vertex="1" parent="1">
          <mxGeometry x="973" y="550" width="130" height="140" as="geometry" />
        </mxCell>
        <mxCell id="AJHHDTXg6uMcqHEg2_Dp-89" value="&lt;h1 style=&quot;text-align: right;&quot;&gt;&lt;font style=&quot;font-size: 16px;&quot;&gt;Heading&lt;/font&gt;&lt;/h1&gt;&lt;p style=&quot;&quot;&gt;&lt;font style=&quot;font-size: 10px;&quot;&gt;Lorem ipsum dolor sit amet, consectetur adipisicing elit, sed do eiusmod tempor incididunt ut labore et dolore magna aliqua.&amp;nbsp;&lt;/font&gt;&lt;/p&gt;" style="text;html=1;strokeColor=none;fillColor=none;spacing=5;spacingTop=-20;whiteSpace=wrap;overflow=hidden;rounded=0;" vertex="1" parent="1">
          <mxGeometry x="643" y="750" width="440" height="130" as="geometry" />
        </mxCell>
        <mxCell id="AJHHDTXg6uMcqHEg2_Dp-92" value="" style="rounded=0;whiteSpace=wrap;html=1;" vertex="1" parent="1">
          <mxGeometry x="503" y="750" width="130" height="90" as="geometry" />
        </mxCell>
        <mxCell id="AJHHDTXg6uMcqHEg2_Dp-93" value="image" style="rounded=0;whiteSpace=wrap;html=1;" vertex="1" parent="1">
          <mxGeometry x="60" y="410" width="130" height="200" as="geometry" />
        </mxCell>
        <mxCell id="AJHHDTXg6uMcqHEg2_Dp-94" value="" style="rounded=0;whiteSpace=wrap;html=1;" vertex="1" parent="1">
          <mxGeometry x="60" y="630" width="280" height="90" as="geometry" />
        </mxCell>
        <mxCell id="AJHHDTXg6uMcqHEg2_Dp-95" value="image" style="rounded=0;whiteSpace=wrap;html=1;" vertex="1" parent="1">
          <mxGeometry x="60" y="630" width="130" height="90" as="geometry" />
        </mxCell>
        <mxCell id="AJHHDTXg6uMcqHEg2_Dp-96" value="&lt;h1&gt;Heading&lt;/h1&gt;&lt;p&gt;Lorem ipsum dolor sit amet, consectetur adipisicing elit, sed do eiusmod tempor incididunt ut labore et dolore magna aliqua.&lt;/p&gt;" style="text;html=1;strokeColor=none;fillColor=none;spacing=5;spacingTop=-20;whiteSpace=wrap;overflow=hidden;rounded=0;" vertex="1" parent="1">
          <mxGeometry x="200" y="450" width="130" height="120" as="geometry" />
        </mxCell>
        <mxCell id="AJHHDTXg6uMcqHEg2_Dp-97" value="&lt;h1&gt;Heading&lt;/h1&gt;&lt;p&gt;Lorem ipsum dolor sit amet, consectetur adipisicing elit, sed do eiusmod tempor incididunt ut labore et dolore magna aliqua.&lt;/p&gt;" style="text;html=1;strokeColor=none;fillColor=none;spacing=5;spacingTop=-20;whiteSpace=wrap;overflow=hidden;rounded=0;" vertex="1" parent="1">
          <mxGeometry x="200" y="630" width="130" height="120" as="geometry" />
        </mxCell>
        <mxCell id="AJHHDTXg6uMcqHEg2_Dp-98" value="" style="rounded=1;whiteSpace=wrap;html=1;fillColor=#000000;" vertex="1" parent="1">
          <mxGeometry x="42" y="1000" width="320" height="560" as="geometry" />
        </mxCell>
        <mxCell id="AJHHDTXg6uMcqHEg2_Dp-99" value="" style="rounded=0;whiteSpace=wrap;html=1;" vertex="1" parent="1">
          <mxGeometry x="42" y="1040" width="320" height="480" as="geometry" />
        </mxCell>
        <mxCell id="AJHHDTXg6uMcqHEg2_Dp-100" value="" style="rounded=0;whiteSpace=wrap;html=1;fillColor=#999999;" vertex="1" parent="1">
          <mxGeometry x="42" y="1040" width="320" height="60" as="geometry" />
        </mxCell>
        <mxCell id="AJHHDTXg6uMcqHEg2_Dp-101" value="&lt;font style=&quot;font-size: 30px;&quot;&gt;&lt;b&gt;/login&lt;/b&gt;&lt;/font&gt;" style="text;html=1;strokeColor=none;fillColor=none;align=center;verticalAlign=middle;whiteSpace=wrap;rounded=0;" vertex="1" parent="1">
          <mxGeometry x="122" y="930" width="160" height="30" as="geometry" />
        </mxCell>
        <mxCell id="AJHHDTXg6uMcqHEg2_Dp-102" value="&lt;font size=&quot;1&quot; style=&quot;&quot;&gt;&lt;b style=&quot;font-size: 25px;&quot;&gt;MB-ONE&lt;/b&gt;&lt;/font&gt;" style="text;html=1;strokeColor=none;fillColor=none;align=center;verticalAlign=middle;whiteSpace=wrap;rounded=0;" vertex="1" parent="1">
          <mxGeometry x="142" y="1135" width="120" height="30" as="geometry" />
        </mxCell>
        <mxCell id="AJHHDTXg6uMcqHEg2_Dp-103" value="" style="shape=image;html=1;verticalAlign=top;verticalLabelPosition=bottom;labelBackgroundColor=#ffffff;imageAspect=0;aspect=fixed;image=https://cdn1.iconfinder.com/data/icons/user-pictures/100/unknown-128.png" vertex="1" parent="1">
          <mxGeometry x="302" y="1109" width="52" height="52" as="geometry" />
        </mxCell>
        <mxCell id="AJHHDTXg6uMcqHEg2_Dp-112" value="login" style="rounded=1;whiteSpace=wrap;html=1;" vertex="1" parent="1">
          <mxGeometry x="97" y="1210" width="210" height="40" as="geometry" />
        </mxCell>
        <mxCell id="AJHHDTXg6uMcqHEg2_Dp-113" value="mot de passe" style="rounded=1;whiteSpace=wrap;html=1;" vertex="1" parent="1">
          <mxGeometry x="97" y="1270" width="210" height="40" as="geometry" />
        </mxCell>
        <mxCell id="AJHHDTXg6uMcqHEg2_Dp-114" value="connexion" style="rounded=1;whiteSpace=wrap;html=1;" vertex="1" parent="1">
          <mxGeometry x="222" y="1330" width="85" height="40" as="geometry" />
        </mxCell>
        <mxCell id="AJHHDTXg6uMcqHEg2_Dp-115" value="Pas encore inscrit?" style="text;html=1;strokeColor=none;fillColor=none;align=center;verticalAlign=middle;whiteSpace=wrap;rounded=0;" vertex="1" parent="1">
          <mxGeometry x="222" y="1390" width="85" height="30" as="geometry" />
        </mxCell>
        <mxCell id="AJHHDTXg6uMcqHEg2_Dp-116" value="" style="rounded=1;whiteSpace=wrap;html=1;fillColor=#000000;" vertex="1" parent="1">
          <mxGeometry x="42" y="1680" width="320" height="560" as="geometry" />
        </mxCell>
        <mxCell id="AJHHDTXg6uMcqHEg2_Dp-117" value="" style="rounded=0;whiteSpace=wrap;html=1;" vertex="1" parent="1">
          <mxGeometry x="42" y="1720" width="320" height="480" as="geometry" />
        </mxCell>
        <mxCell id="AJHHDTXg6uMcqHEg2_Dp-118" value="" style="rounded=0;whiteSpace=wrap;html=1;fillColor=#999999;" vertex="1" parent="1">
          <mxGeometry x="42" y="1720" width="320" height="60" as="geometry" />
        </mxCell>
        <mxCell id="AJHHDTXg6uMcqHEg2_Dp-119" value="&lt;font style=&quot;font-size: 30px;&quot;&gt;&lt;b&gt;/signin&lt;/b&gt;&lt;/font&gt;" style="text;html=1;strokeColor=none;fillColor=none;align=center;verticalAlign=middle;whiteSpace=wrap;rounded=0;" vertex="1" parent="1">
          <mxGeometry x="122" y="1610" width="160" height="30" as="geometry" />
        </mxCell>
        <mxCell id="AJHHDTXg6uMcqHEg2_Dp-120" value="&lt;font size=&quot;1&quot; style=&quot;&quot;&gt;&lt;b style=&quot;font-size: 25px;&quot;&gt;MB-ONE&lt;/b&gt;&lt;/font&gt;" style="text;html=1;strokeColor=none;fillColor=none;align=center;verticalAlign=middle;whiteSpace=wrap;rounded=0;" vertex="1" parent="1">
          <mxGeometry x="142" y="1815" width="120" height="30" as="geometry" />
        </mxCell>
        <mxCell id="AJHHDTXg6uMcqHEg2_Dp-121" value="" style="shape=image;html=1;verticalAlign=top;verticalLabelPosition=bottom;labelBackgroundColor=#ffffff;imageAspect=0;aspect=fixed;image=https://cdn1.iconfinder.com/data/icons/user-pictures/100/unknown-128.png" vertex="1" parent="1">
          <mxGeometry x="302" y="1789" width="52" height="52" as="geometry" />
        </mxCell>
        <mxCell id="AJHHDTXg6uMcqHEg2_Dp-122" value="nom" style="rounded=1;whiteSpace=wrap;html=1;" vertex="1" parent="1">
          <mxGeometry x="70" y="1860" width="120" height="40" as="geometry" />
        </mxCell>
        <mxCell id="AJHHDTXg6uMcqHEg2_Dp-123" value="mot de passe" style="rounded=1;whiteSpace=wrap;html=1;" vertex="1" parent="1">
          <mxGeometry x="72" y="1910" width="118" height="40" as="geometry" />
        </mxCell>
        <mxCell id="AJHHDTXg6uMcqHEg2_Dp-124" value="s&#39;inscrire" style="rounded=1;whiteSpace=wrap;html=1;" vertex="1" parent="1">
          <mxGeometry x="245" y="2020" width="85" height="40" as="geometry" />
        </mxCell>
        <mxCell id="AJHHDTXg6uMcqHEg2_Dp-126" value="confirmez mdp" style="rounded=1;whiteSpace=wrap;html=1;" vertex="1" parent="1">
          <mxGeometry x="72" y="1960" width="118" height="40" as="geometry" />
        </mxCell>
        <mxCell id="AJHHDTXg6uMcqHEg2_Dp-127" value="adresse mail" style="rounded=1;whiteSpace=wrap;html=1;" vertex="1" parent="1">
          <mxGeometry x="212" y="1910" width="118" height="40" as="geometry" />
        </mxCell>
        <mxCell id="AJHHDTXg6uMcqHEg2_Dp-128" value="confirmez mail" style="rounded=1;whiteSpace=wrap;html=1;" vertex="1" parent="1">
          <mxGeometry x="212" y="1960" width="118" height="40" as="geometry" />
        </mxCell>
        <mxCell id="AJHHDTXg6uMcqHEg2_Dp-129" value="login" style="rounded=1;whiteSpace=wrap;html=1;" vertex="1" parent="1">
          <mxGeometry x="210" y="1860" width="120" height="40" as="geometry" />
        </mxCell>
        <mxCell id="AJHHDTXg6uMcqHEg2_Dp-130" value="" style="rounded=0;whiteSpace=wrap;html=1;fillColor=#999999;fontColor=#333333;strokeColor=#000000;" vertex="1" parent="1">
          <mxGeometry x="443" y="920" width="720" height="640" as="geometry" />
        </mxCell>
        <mxCell id="AJHHDTXg6uMcqHEg2_Dp-131" value="" style="rounded=1;whiteSpace=wrap;html=1;" vertex="1" parent="1">
          <mxGeometry x="509" y="1050" width="587" height="370" as="geometry" />
        </mxCell>
        <mxCell id="AJHHDTXg6uMcqHEg2_Dp-132" value="login" style="rounded=1;whiteSpace=wrap;html=1;" vertex="1" parent="1">
          <mxGeometry x="576" y="1109" width="450" height="60" as="geometry" />
        </mxCell>
        <mxCell id="AJHHDTXg6uMcqHEg2_Dp-136" value="FOOTER" style="rounded=1;whiteSpace=wrap;html=1;" vertex="1" parent="1">
          <mxGeometry x="44" y="1460" width="318" height="60" as="geometry" />
        </mxCell>
        <mxCell id="AJHHDTXg6uMcqHEg2_Dp-133" value="mdp" style="rounded=1;whiteSpace=wrap;html=1;" vertex="1" parent="1">
          <mxGeometry x="575.25" y="1190" width="450" height="60" as="geometry" />
        </mxCell>
        <mxCell id="AJHHDTXg6uMcqHEg2_Dp-134" value="connexion" style="rounded=1;whiteSpace=wrap;html=1;" vertex="1" parent="1">
          <mxGeometry x="941" y="1270" width="85" height="40" as="geometry" />
        </mxCell>
        <mxCell id="AJHHDTXg6uMcqHEg2_Dp-135" value="Pas encore inscrit?" style="text;html=1;strokeColor=none;fillColor=none;align=center;verticalAlign=middle;whiteSpace=wrap;rounded=0;" vertex="1" parent="1">
          <mxGeometry x="979" y="1360" width="85" height="30" as="geometry" />
        </mxCell>
        <mxCell id="AJHHDTXg6uMcqHEg2_Dp-137" value="FOOTER" style="rounded=1;whiteSpace=wrap;html=1;" vertex="1" parent="1">
          <mxGeometry x="41" y="660" width="318" height="60" as="geometry" />
        </mxCell>
        <mxCell id="AJHHDTXg6uMcqHEg2_Dp-138" value="FOOTER" style="rounded=1;whiteSpace=wrap;html=1;" vertex="1" parent="1">
          <mxGeometry x="43" y="2140" width="318" height="60" as="geometry" />
        </mxCell>
        <mxCell id="AJHHDTXg6uMcqHEg2_Dp-140" value="FOOTER" style="rounded=0;whiteSpace=wrap;html=1;" vertex="1" parent="1">
          <mxGeometry x="443" y="765" width="720" height="75" as="geometry" />
        </mxCell>
        <mxCell id="AJHHDTXg6uMcqHEg2_Dp-141" value="FOOTER" style="rounded=0;whiteSpace=wrap;html=1;" vertex="1" parent="1">
          <mxGeometry x="443" y="1485" width="720" height="75" as="geometry" />
        </mxCell>
        <mxCell id="AJHHDTXg6uMcqHEg2_Dp-142" value="" style="rounded=1;whiteSpace=wrap;html=1;fillColor=#000000;" vertex="1" parent="1">
          <mxGeometry x="39" y="2350" width="320" height="560" as="geometry" />
        </mxCell>
        <mxCell id="AJHHDTXg6uMcqHEg2_Dp-143" value="" style="rounded=0;whiteSpace=wrap;html=1;" vertex="1" parent="1">
          <mxGeometry x="39" y="2390" width="320" height="480" as="geometry" />
        </mxCell>
        <mxCell id="AJHHDTXg6uMcqHEg2_Dp-144" value="" style="rounded=0;whiteSpace=wrap;html=1;fillColor=#999999;" vertex="1" parent="1">
          <mxGeometry x="39" y="2390" width="320" height="60" as="geometry" />
        </mxCell>
        <mxCell id="AJHHDTXg6uMcqHEg2_Dp-145" value="&lt;font style=&quot;font-size: 30px;&quot;&gt;&lt;b&gt;/search&lt;/b&gt;&lt;/font&gt;" style="text;html=1;strokeColor=none;fillColor=none;align=center;verticalAlign=middle;whiteSpace=wrap;rounded=0;" vertex="1" parent="1">
          <mxGeometry x="62.5" y="2290" width="281" height="30" as="geometry" />
        </mxCell>
        <mxCell id="AJHHDTXg6uMcqHEg2_Dp-146" value="&lt;font size=&quot;1&quot; style=&quot;&quot;&gt;&lt;b style=&quot;font-size: 25px;&quot;&gt;MB-ONE&lt;/b&gt;&lt;/font&gt;" style="text;html=1;strokeColor=none;fillColor=none;align=center;verticalAlign=middle;whiteSpace=wrap;rounded=0;" vertex="1" parent="1">
          <mxGeometry x="50" y="2460" width="120" height="30" as="geometry" />
        </mxCell>
        <mxCell id="AJHHDTXg6uMcqHEg2_Dp-152" value="FOOTER" style="rounded=1;whiteSpace=wrap;html=1;" vertex="1" parent="1">
          <mxGeometry x="41" y="2810" width="318" height="60" as="geometry" />
        </mxCell>
        <mxCell id="AJHHDTXg6uMcqHEg2_Dp-153" value="" style="shape=image;html=1;verticalAlign=top;verticalLabelPosition=bottom;labelBackgroundColor=#ffffff;imageAspect=0;aspect=fixed;image=https://cdn1.iconfinder.com/data/icons/user-pictures/100/unknown-128.png" vertex="1" parent="1">
          <mxGeometry x="300" y="2460" width="52" height="52" as="geometry" />
        </mxCell>
        <mxCell id="AJHHDTXg6uMcqHEg2_Dp-157" value="100 CR." style="text;html=1;strokeColor=none;fillColor=none;align=center;verticalAlign=middle;whiteSpace=wrap;rounded=0;" vertex="1" parent="1">
          <mxGeometry x="294" y="2520" width="60" height="30" as="geometry" />
        </mxCell>
        <mxCell id="AJHHDTXg6uMcqHEg2_Dp-158" value="" style="rounded=1;whiteSpace=wrap;html=1;" vertex="1" parent="1">
          <mxGeometry x="62.5" y="2560" width="267.5" height="110" as="geometry" />
        </mxCell>
        <mxCell id="AJHHDTXg6uMcqHEg2_Dp-160" value="Domaine" style="rounded=0;whiteSpace=wrap;html=1;" vertex="1" parent="1">
          <mxGeometry x="80" y="2580" width="190" height="30" as="geometry" />
        </mxCell>
        <mxCell id="AJHHDTXg6uMcqHEg2_Dp-161" value="Niveau" style="rounded=0;whiteSpace=wrap;html=1;" vertex="1" parent="1">
          <mxGeometry x="80" y="2620" width="190" height="30" as="geometry" />
        </mxCell>
        <mxCell id="AJHHDTXg6uMcqHEg2_Dp-165" value="" style="shape=image;html=1;verticalAlign=top;verticalLabelPosition=bottom;labelBackgroundColor=#ffffff;imageAspect=0;aspect=fixed;image=https://cdn1.iconfinder.com/data/icons/seo-and-web-development-6/32/development_search_magnifier_magnifying_glass_loupe-67-128.png" vertex="1" parent="1">
          <mxGeometry x="282" y="2620" width="30" height="30" as="geometry" />
        </mxCell>
        <mxCell id="AJHHDTXg6uMcqHEg2_Dp-166" value="" style="rounded=0;whiteSpace=wrap;html=1;" vertex="1" parent="1">
          <mxGeometry x="62.5" y="2690" width="267.5" height="120" as="geometry" />
        </mxCell>
        <mxCell id="AJHHDTXg6uMcqHEg2_Dp-167" value="photo" style="rounded=0;whiteSpace=wrap;html=1;" vertex="1" parent="1">
          <mxGeometry x="72" y="2700" width="68" height="70" as="geometry" />
        </mxCell>
        <mxCell id="AJHHDTXg6uMcqHEg2_Dp-168" value="Infos" style="text;html=1;strokeColor=none;fillColor=none;align=center;verticalAlign=middle;whiteSpace=wrap;rounded=0;" vertex="1" parent="1">
          <mxGeometry x="142" y="2700" width="178" height="70" as="geometry" />
        </mxCell>
        <mxCell id="AJHHDTXg6uMcqHEg2_Dp-169" value="" style="endArrow=none;html=1;rounded=0;exitX=0;exitY=0.75;exitDx=0;exitDy=0;entryX=1;entryY=0.75;entryDx=0;entryDy=0;" edge="1" parent="1" source="AJHHDTXg6uMcqHEg2_Dp-166" target="AJHHDTXg6uMcqHEg2_Dp-166">
          <mxGeometry width="50" height="50" relative="1" as="geometry">
            <mxPoint x="330" y="2720" as="sourcePoint" />
            <mxPoint x="380" y="2670" as="targetPoint" />
          </mxGeometry>
        </mxCell>
        <mxCell id="AJHHDTXg6uMcqHEg2_Dp-170" value="" style="rounded=0;whiteSpace=wrap;html=1;fillColor=#FFFFFF;fontColor=#333333;strokeColor=#000000;" vertex="1" parent="1">
          <mxGeometry x="440.25" y="2290" width="720" height="640" as="geometry" />
        </mxCell>
        <mxCell id="AJHHDTXg6uMcqHEg2_Dp-176" value="FOOTER" style="rounded=0;whiteSpace=wrap;html=1;" vertex="1" parent="1">
          <mxGeometry x="440.25" y="2855" width="720" height="75" as="geometry" />
        </mxCell>
        <mxCell id="AJHHDTXg6uMcqHEg2_Dp-177" value="" style="shape=image;html=1;verticalAlign=top;verticalLabelPosition=bottom;labelBackgroundColor=#ffffff;imageAspect=0;aspect=fixed;image=https://cdn1.iconfinder.com/data/icons/user-pictures/100/unknown-128.png" vertex="1" parent="1">
          <mxGeometry x="1040" y="2310" width="95" height="95" as="geometry" />
        </mxCell>
        <mxCell id="AJHHDTXg6uMcqHEg2_Dp-178" value="100 CR." style="text;html=1;strokeColor=none;fillColor=none;align=center;verticalAlign=middle;whiteSpace=wrap;rounded=0;" vertex="1" parent="1">
          <mxGeometry x="1057" y="2420" width="60" height="30" as="geometry" />
        </mxCell>
        <mxCell id="AJHHDTXg6uMcqHEg2_Dp-179" value="" style="rounded=1;whiteSpace=wrap;html=1;" vertex="1" parent="1">
          <mxGeometry x="520" y="2460" width="570" height="60" as="geometry" />
        </mxCell>
        <mxCell id="AJHHDTXg6uMcqHEg2_Dp-180" value="Domaine" style="rounded=0;whiteSpace=wrap;html=1;" vertex="1" parent="1">
          <mxGeometry x="537.5" y="2471" width="262.5" height="30" as="geometry" />
        </mxCell>
        <mxCell id="AJHHDTXg6uMcqHEg2_Dp-181" value="Niveau" style="rounded=0;whiteSpace=wrap;html=1;" vertex="1" parent="1">
          <mxGeometry x="820" y="2471" width="206" height="30" as="geometry" />
        </mxCell>
        <mxCell id="AJHHDTXg6uMcqHEg2_Dp-182" value="" style="shape=image;html=1;verticalAlign=top;verticalLabelPosition=bottom;labelBackgroundColor=#ffffff;imageAspect=0;aspect=fixed;image=https://cdn1.iconfinder.com/data/icons/seo-and-web-development-6/32/development_search_magnifier_magnifying_glass_loupe-67-128.png" vertex="1" parent="1">
          <mxGeometry x="1040" y="2480" width="30" height="30" as="geometry" />
        </mxCell>
        <mxCell id="AJHHDTXg6uMcqHEg2_Dp-183" value="" style="rounded=0;whiteSpace=wrap;html=1;" vertex="1" parent="1">
          <mxGeometry x="520" y="2550" width="570" height="300" as="geometry" />
        </mxCell>
        <mxCell id="AJHHDTXg6uMcqHEg2_Dp-184" value="photo" style="rounded=0;whiteSpace=wrap;html=1;" vertex="1" parent="1">
          <mxGeometry x="537.5" y="2570" width="68" height="70" as="geometry" />
        </mxCell>
        <mxCell id="AJHHDTXg6uMcqHEg2_Dp-185" value="Infos" style="text;html=1;strokeColor=none;fillColor=none;align=center;verticalAlign=middle;whiteSpace=wrap;rounded=0;" vertex="1" parent="1">
          <mxGeometry x="605.5" y="2570" width="178" height="70" as="geometry" />
        </mxCell>
        <mxCell id="AJHHDTXg6uMcqHEg2_Dp-187" value="" style="rounded=0;whiteSpace=wrap;html=1;fillColor=#f5f5f5;fontColor=#333333;strokeColor=#666666;" vertex="1" parent="1">
          <mxGeometry x="520" y="2650" width="570" height="100" as="geometry" />
        </mxCell>
        <mxCell id="AJHHDTXg6uMcqHEg2_Dp-188" value="photo" style="rounded=0;whiteSpace=wrap;html=1;" vertex="1" parent="1">
          <mxGeometry x="537.5" y="2665" width="68" height="70" as="geometry" />
        </mxCell>
        <mxCell id="AJHHDTXg6uMcqHEg2_Dp-189" value="Infos" style="text;html=1;strokeColor=none;fillColor=none;align=center;verticalAlign=middle;whiteSpace=wrap;rounded=0;" vertex="1" parent="1">
          <mxGeometry x="615.5" y="2665" width="178" height="70" as="geometry" />
        </mxCell>
      </root>
    </mxGraphModel>
  </diagram>
</mxfile>
